# xmcd CD database file
#
# Track frame offsets:
#	150
#	23625
#	41770
#
# Disc length: 869 seconds
#
# Revision: 0
# Processed by: cddbd v1.5.1PL0 Copyright (c) Steve Scherf et al.
# Submitted via: CDex 1.50
#
DISCID=1b036303
DTITLE=渡辺美里 - 太陽は知っている
DYEAR=1998
DGENRE=J-Rock
TTITLE0=太陽は知っている
TTITLE1=みんないい子になれ
TTITLE2=太陽は知っている[Original Backing Track]
EXTD=YEAR: 1998
EXTT0=
EXTT1=
EXTT2=
PLAYORDER=
